<mxfile host="app.diagrams.net" modified="2023-12-29T14:41:58.544Z" agent="Mozilla/5.0 (Windows NT 10.0; Win64; x64) AppleWebKit/537.36 (KHTML, like Gecko) Chrome/120.0.0.0 Safari/537.36" etag="s0PCKj5pJ0UrjSrbPH0W" version="22.1.16" type="github">
  <diagram name="Page-1" id="099fd60b-425b-db50-ffb0-6b813814b670">
    <mxGraphModel dx="1302" dy="708" grid="1" gridSize="10" guides="1" tooltips="1" connect="1" arrows="1" fold="1" page="1" pageScale="1" pageWidth="3300" pageHeight="4681" background="none" math="0" shadow="0">
      <root>
        <mxCell id="0" />
        <mxCell id="1" parent="0" />
        <mxCell id="DIVmNxzl7p2DdEzpk0Qv-8" value="Mixer" style="whiteSpace=wrap;html=1;aspect=fixed;" vertex="1" parent="1">
          <mxGeometry x="800" y="440" width="200" height="200" as="geometry" />
        </mxCell>
        <mxCell id="DIVmNxzl7p2DdEzpk0Qv-9" value="Compressor" style="rounded=0;whiteSpace=wrap;html=1;" vertex="1" parent="1">
          <mxGeometry x="800" y="720" width="280" height="40" as="geometry" />
        </mxCell>
        <mxCell id="DIVmNxzl7p2DdEzpk0Qv-467" value="" style="group" vertex="1" connectable="0" parent="1">
          <mxGeometry x="1120" y="1150" width="1000" height="120" as="geometry" />
        </mxCell>
        <mxCell id="DIVmNxzl7p2DdEzpk0Qv-464" value="" style="rounded=0;whiteSpace=wrap;html=1;points=[[0.04,0,0,0,0],[0.04,0.99,0,0,0],[0.08,0,0,0,0],[0.08,1,0,0,1],[0.12,0,0,0,0],[0.12,1,0,0,1],[0.16,0,0,0,0],[0.16,1,0,0,0],[0.2,0,0,0,0],[0.2,1,0,0,1],[0.24,0,0,0,0],[0.24,1,0,0,0],[0.28,0,0,0,0],[0.28,1,0,0,0],[0.32,0,0,0,-1],[0.32,1,0,0,1],[0.36,0,0,0,-1],[0.36,0.99,0,0,0],[0.4,0,0,0,0],[0.4,1,0,0,0],[0.44,0.02,0,0,0],[0.44,1,0,0,0],[0.48,0.03,0,0,0],[0.48,1,0,0,0],[0.52,0.02,0,0,0],[0.52,1,0,0,0],[0.56,0,0,0,0],[0.56,1,0,0,1],[0.6,0,0,0,0],[0.6,1,0,0,0],[0.64,0,0,0,0],[0.64,0.99,0,0,0],[0.68,0.02,0,0,0],[0.68,1,0,0,1],[0.72,0,0,0,0],[0.72,1,0,0,0],[0.76,0,0,0,0],[0.76,1,0,0,1],[0.8,0.03,0,0,0],[0.8,1,0,0,0],[0.84,0,0,0,-1],[0.84,1,0,0,0],[0.88,0.02,0,0,0],[0.88,1,0,0,0],[0.92,0,0,0,0],[0.92,1,0,0,0],[0.96,0,0,0,0],[0.96,1,0,0,0]];movable=1;resizable=1;rotatable=1;deletable=1;editable=1;locked=0;connectable=1;container=0;fillColor=none;" vertex="1" parent="DIVmNxzl7p2DdEzpk0Qv-467">
          <mxGeometry width="1000" height="120" as="geometry" />
        </mxCell>
        <mxCell id="DIVmNxzl7p2DdEzpk0Qv-17" value="2" style="edgeStyle=orthogonalEdgeStyle;rounded=0;orthogonalLoop=1;jettySize=auto;html=1;exitX=0.08;exitY=0;exitDx=0;exitDy=0;exitPerimeter=0;fontFamily=Helvetica;fontSize=12;fontColor=default;endArrow=oval;endFill=1;movable=1;resizable=1;rotatable=1;deletable=1;editable=1;locked=0;connectable=1;" edge="1" parent="DIVmNxzl7p2DdEzpk0Qv-467" source="DIVmNxzl7p2DdEzpk0Qv-10">
          <mxGeometry relative="1" as="geometry">
            <mxPoint x="80.26086956521749" as="targetPoint" />
          </mxGeometry>
        </mxCell>
        <mxCell id="DIVmNxzl7p2DdEzpk0Qv-18" value="3" style="edgeStyle=orthogonalEdgeStyle;rounded=0;orthogonalLoop=1;jettySize=auto;html=1;exitX=0.12;exitY=0;exitDx=0;exitDy=0;exitPerimeter=0;fontFamily=Helvetica;fontSize=12;fontColor=default;endArrow=oval;endFill=1;movable=1;resizable=1;rotatable=1;deletable=1;editable=1;locked=0;connectable=1;" edge="1" parent="DIVmNxzl7p2DdEzpk0Qv-467" source="DIVmNxzl7p2DdEzpk0Qv-10">
          <mxGeometry relative="1" as="geometry">
            <mxPoint x="120.26086956521749" as="targetPoint" />
          </mxGeometry>
        </mxCell>
        <mxCell id="DIVmNxzl7p2DdEzpk0Qv-19" value="4" style="edgeStyle=orthogonalEdgeStyle;rounded=0;orthogonalLoop=1;jettySize=auto;html=1;exitX=0.16;exitY=0;exitDx=0;exitDy=0;exitPerimeter=0;fontFamily=Helvetica;fontSize=12;fontColor=default;endArrow=oval;endFill=1;movable=1;resizable=1;rotatable=1;deletable=1;editable=1;locked=0;connectable=1;" edge="1" parent="DIVmNxzl7p2DdEzpk0Qv-467" source="DIVmNxzl7p2DdEzpk0Qv-10">
          <mxGeometry relative="1" as="geometry">
            <mxPoint x="160.2608695652175" as="targetPoint" />
          </mxGeometry>
        </mxCell>
        <mxCell id="DIVmNxzl7p2DdEzpk0Qv-20" value="5" style="edgeStyle=orthogonalEdgeStyle;rounded=0;orthogonalLoop=1;jettySize=auto;html=1;exitX=0.2;exitY=0;exitDx=0;exitDy=0;exitPerimeter=0;fontFamily=Helvetica;fontSize=12;fontColor=default;endArrow=oval;endFill=1;movable=1;resizable=1;rotatable=1;deletable=1;editable=1;locked=0;connectable=1;" edge="1" parent="DIVmNxzl7p2DdEzpk0Qv-467" source="DIVmNxzl7p2DdEzpk0Qv-10">
          <mxGeometry relative="1" as="geometry">
            <mxPoint x="200.2608695652175" as="targetPoint" />
          </mxGeometry>
        </mxCell>
        <mxCell id="DIVmNxzl7p2DdEzpk0Qv-21" value="6" style="edgeStyle=orthogonalEdgeStyle;rounded=0;orthogonalLoop=1;jettySize=auto;html=1;exitX=0.24;exitY=0;exitDx=0;exitDy=0;exitPerimeter=0;fontFamily=Helvetica;fontSize=12;fontColor=default;endArrow=oval;endFill=1;movable=1;resizable=1;rotatable=1;deletable=1;editable=1;locked=0;connectable=1;" edge="1" parent="DIVmNxzl7p2DdEzpk0Qv-467" source="DIVmNxzl7p2DdEzpk0Qv-10">
          <mxGeometry relative="1" as="geometry">
            <mxPoint x="240.2608695652175" as="targetPoint" />
          </mxGeometry>
        </mxCell>
        <mxCell id="DIVmNxzl7p2DdEzpk0Qv-22" value="7" style="edgeStyle=orthogonalEdgeStyle;rounded=0;orthogonalLoop=1;jettySize=auto;html=1;exitX=0.28;exitY=0;exitDx=0;exitDy=0;exitPerimeter=0;fontFamily=Helvetica;fontSize=12;fontColor=default;endArrow=oval;endFill=1;movable=1;resizable=1;rotatable=1;deletable=1;editable=1;locked=0;connectable=1;" edge="1" parent="DIVmNxzl7p2DdEzpk0Qv-467" source="DIVmNxzl7p2DdEzpk0Qv-10">
          <mxGeometry relative="1" as="geometry">
            <mxPoint x="280.2608695652175" as="targetPoint" />
          </mxGeometry>
        </mxCell>
        <mxCell id="DIVmNxzl7p2DdEzpk0Qv-23" value="8" style="edgeStyle=orthogonalEdgeStyle;rounded=0;orthogonalLoop=1;jettySize=auto;html=1;exitX=0.32;exitY=0;exitDx=0;exitDy=-1;exitPerimeter=0;fontFamily=Helvetica;fontSize=12;fontColor=default;endArrow=oval;endFill=1;movable=1;resizable=1;rotatable=1;deletable=1;editable=1;locked=0;connectable=1;" edge="1" parent="DIVmNxzl7p2DdEzpk0Qv-467" source="DIVmNxzl7p2DdEzpk0Qv-10">
          <mxGeometry relative="1" as="geometry">
            <mxPoint x="320.2608695652175" as="targetPoint" />
          </mxGeometry>
        </mxCell>
        <mxCell id="DIVmNxzl7p2DdEzpk0Qv-24" value="9" style="edgeStyle=orthogonalEdgeStyle;rounded=0;orthogonalLoop=1;jettySize=auto;html=1;exitX=0.36;exitY=0;exitDx=0;exitDy=-1;exitPerimeter=0;fontFamily=Helvetica;fontSize=12;fontColor=default;endArrow=oval;endFill=1;movable=1;resizable=1;rotatable=1;deletable=1;editable=1;locked=0;connectable=1;" edge="1" parent="DIVmNxzl7p2DdEzpk0Qv-467" source="DIVmNxzl7p2DdEzpk0Qv-10">
          <mxGeometry relative="1" as="geometry">
            <mxPoint x="360.2608695652175" as="targetPoint" />
          </mxGeometry>
        </mxCell>
        <mxCell id="DIVmNxzl7p2DdEzpk0Qv-25" value="10" style="edgeStyle=orthogonalEdgeStyle;rounded=0;orthogonalLoop=1;jettySize=auto;html=1;exitX=0.4;exitY=0;exitDx=0;exitDy=0;exitPerimeter=0;fontFamily=Helvetica;fontSize=12;fontColor=default;endArrow=oval;endFill=1;movable=1;resizable=1;rotatable=1;deletable=1;editable=1;locked=0;connectable=1;" edge="1" parent="DIVmNxzl7p2DdEzpk0Qv-467" source="DIVmNxzl7p2DdEzpk0Qv-10">
          <mxGeometry relative="1" as="geometry">
            <mxPoint x="400.2608695652175" as="targetPoint" />
          </mxGeometry>
        </mxCell>
        <mxCell id="DIVmNxzl7p2DdEzpk0Qv-26" value="11" style="edgeStyle=orthogonalEdgeStyle;rounded=0;orthogonalLoop=1;jettySize=auto;html=1;exitX=0.44;exitY=0.02;exitDx=0;exitDy=0;exitPerimeter=0;fontFamily=Helvetica;fontSize=12;fontColor=default;endArrow=oval;endFill=1;movable=1;resizable=1;rotatable=1;deletable=1;editable=1;locked=0;connectable=1;" edge="1" parent="DIVmNxzl7p2DdEzpk0Qv-467" source="DIVmNxzl7p2DdEzpk0Qv-10">
          <mxGeometry relative="1" as="geometry">
            <mxPoint x="440.2608695652175" as="targetPoint" />
          </mxGeometry>
        </mxCell>
        <mxCell id="DIVmNxzl7p2DdEzpk0Qv-27" value="12" style="edgeStyle=orthogonalEdgeStyle;rounded=0;orthogonalLoop=1;jettySize=auto;html=1;exitX=0.48;exitY=0.03;exitDx=0;exitDy=0;exitPerimeter=0;fontFamily=Helvetica;fontSize=12;fontColor=default;endArrow=oval;endFill=1;movable=1;resizable=1;rotatable=1;deletable=1;editable=1;locked=0;connectable=1;" edge="1" parent="DIVmNxzl7p2DdEzpk0Qv-467" source="DIVmNxzl7p2DdEzpk0Qv-10">
          <mxGeometry relative="1" as="geometry">
            <mxPoint x="480.2608695652175" as="targetPoint" />
          </mxGeometry>
        </mxCell>
        <mxCell id="DIVmNxzl7p2DdEzpk0Qv-28" value="13" style="edgeStyle=orthogonalEdgeStyle;rounded=0;orthogonalLoop=1;jettySize=auto;html=1;exitX=0.52;exitY=0.02;exitDx=0;exitDy=0;exitPerimeter=0;fontFamily=Helvetica;fontSize=12;fontColor=default;endArrow=oval;endFill=1;movable=1;resizable=1;rotatable=1;deletable=1;editable=1;locked=0;connectable=1;" edge="1" parent="DIVmNxzl7p2DdEzpk0Qv-467" source="DIVmNxzl7p2DdEzpk0Qv-10">
          <mxGeometry relative="1" as="geometry">
            <mxPoint x="520.2608695652175" as="targetPoint" />
          </mxGeometry>
        </mxCell>
        <mxCell id="DIVmNxzl7p2DdEzpk0Qv-29" value="14" style="edgeStyle=orthogonalEdgeStyle;rounded=0;orthogonalLoop=1;jettySize=auto;html=1;exitX=0.56;exitY=0;exitDx=0;exitDy=0;exitPerimeter=0;fontFamily=Helvetica;fontSize=12;fontColor=default;endArrow=oval;endFill=1;movable=1;resizable=1;rotatable=1;deletable=1;editable=1;locked=0;connectable=1;" edge="1" parent="DIVmNxzl7p2DdEzpk0Qv-467" source="DIVmNxzl7p2DdEzpk0Qv-10">
          <mxGeometry relative="1" as="geometry">
            <mxPoint x="560.2608695652175" as="targetPoint" />
          </mxGeometry>
        </mxCell>
        <mxCell id="DIVmNxzl7p2DdEzpk0Qv-30" value="15" style="edgeStyle=orthogonalEdgeStyle;rounded=0;orthogonalLoop=1;jettySize=auto;html=1;exitX=0.6;exitY=0;exitDx=0;exitDy=0;exitPerimeter=0;fontFamily=Helvetica;fontSize=12;fontColor=default;endArrow=oval;endFill=1;movable=1;resizable=1;rotatable=1;deletable=1;editable=1;locked=0;connectable=1;" edge="1" parent="DIVmNxzl7p2DdEzpk0Qv-467" source="DIVmNxzl7p2DdEzpk0Qv-10">
          <mxGeometry relative="1" as="geometry">
            <mxPoint x="600.2608695652175" as="targetPoint" />
          </mxGeometry>
        </mxCell>
        <mxCell id="DIVmNxzl7p2DdEzpk0Qv-31" value="16" style="edgeStyle=orthogonalEdgeStyle;rounded=0;orthogonalLoop=1;jettySize=auto;html=1;exitX=0.64;exitY=0;exitDx=0;exitDy=0;exitPerimeter=0;fontFamily=Helvetica;fontSize=12;fontColor=default;endArrow=oval;endFill=1;movable=1;resizable=1;rotatable=1;deletable=1;editable=1;locked=0;connectable=1;" edge="1" parent="DIVmNxzl7p2DdEzpk0Qv-467" source="DIVmNxzl7p2DdEzpk0Qv-10">
          <mxGeometry relative="1" as="geometry">
            <mxPoint x="640.2608695652175" as="targetPoint" />
          </mxGeometry>
        </mxCell>
        <mxCell id="DIVmNxzl7p2DdEzpk0Qv-32" value="17" style="edgeStyle=orthogonalEdgeStyle;rounded=0;orthogonalLoop=1;jettySize=auto;html=1;exitX=0.68;exitY=0.02;exitDx=0;exitDy=0;exitPerimeter=0;fontFamily=Helvetica;fontSize=12;fontColor=default;endArrow=oval;endFill=1;movable=1;resizable=1;rotatable=1;deletable=1;editable=1;locked=0;connectable=1;" edge="1" parent="DIVmNxzl7p2DdEzpk0Qv-467" source="DIVmNxzl7p2DdEzpk0Qv-10">
          <mxGeometry relative="1" as="geometry">
            <mxPoint x="680.2608695652175" as="targetPoint" />
          </mxGeometry>
        </mxCell>
        <mxCell id="DIVmNxzl7p2DdEzpk0Qv-33" value="18" style="edgeStyle=orthogonalEdgeStyle;rounded=0;orthogonalLoop=1;jettySize=auto;html=1;exitX=0.72;exitY=0;exitDx=0;exitDy=0;exitPerimeter=0;fontFamily=Helvetica;fontSize=12;fontColor=default;endArrow=oval;endFill=1;movable=1;resizable=1;rotatable=1;deletable=1;editable=1;locked=0;connectable=1;" edge="1" parent="DIVmNxzl7p2DdEzpk0Qv-467" source="DIVmNxzl7p2DdEzpk0Qv-10">
          <mxGeometry relative="1" as="geometry">
            <mxPoint x="720.2608695652175" as="targetPoint" />
          </mxGeometry>
        </mxCell>
        <mxCell id="DIVmNxzl7p2DdEzpk0Qv-34" value="19" style="edgeStyle=orthogonalEdgeStyle;rounded=0;orthogonalLoop=1;jettySize=auto;html=1;exitX=0.76;exitY=0;exitDx=0;exitDy=0;exitPerimeter=0;fontFamily=Helvetica;fontSize=12;fontColor=default;endArrow=oval;endFill=1;movable=1;resizable=1;rotatable=1;deletable=1;editable=1;locked=0;connectable=1;" edge="1" parent="DIVmNxzl7p2DdEzpk0Qv-467" source="DIVmNxzl7p2DdEzpk0Qv-10">
          <mxGeometry relative="1" as="geometry">
            <mxPoint x="760.2608695652175" as="targetPoint" />
          </mxGeometry>
        </mxCell>
        <mxCell id="DIVmNxzl7p2DdEzpk0Qv-35" value="20" style="edgeStyle=orthogonalEdgeStyle;rounded=0;orthogonalLoop=1;jettySize=auto;html=1;exitX=0.8;exitY=0.03;exitDx=0;exitDy=0;exitPerimeter=0;fontFamily=Helvetica;fontSize=12;fontColor=default;endArrow=oval;endFill=1;movable=1;resizable=1;rotatable=1;deletable=1;editable=1;locked=0;connectable=1;" edge="1" parent="DIVmNxzl7p2DdEzpk0Qv-467" source="DIVmNxzl7p2DdEzpk0Qv-10">
          <mxGeometry relative="1" as="geometry">
            <mxPoint x="800.2608695652175" as="targetPoint" />
          </mxGeometry>
        </mxCell>
        <mxCell id="DIVmNxzl7p2DdEzpk0Qv-36" value="21" style="edgeStyle=orthogonalEdgeStyle;rounded=0;orthogonalLoop=1;jettySize=auto;html=1;exitX=0.84;exitY=0;exitDx=0;exitDy=-1;exitPerimeter=0;fontFamily=Helvetica;fontSize=12;fontColor=default;endArrow=oval;endFill=1;movable=1;resizable=1;rotatable=1;deletable=1;editable=1;locked=0;connectable=1;" edge="1" parent="DIVmNxzl7p2DdEzpk0Qv-467" source="DIVmNxzl7p2DdEzpk0Qv-10">
          <mxGeometry relative="1" as="geometry">
            <mxPoint x="840.2608695652175" as="targetPoint" />
          </mxGeometry>
        </mxCell>
        <mxCell id="DIVmNxzl7p2DdEzpk0Qv-37" value="22" style="edgeStyle=orthogonalEdgeStyle;rounded=0;orthogonalLoop=1;jettySize=auto;html=1;exitX=0.88;exitY=0.02;exitDx=0;exitDy=0;exitPerimeter=0;fontFamily=Helvetica;fontSize=12;fontColor=default;endArrow=oval;endFill=1;movable=1;resizable=1;rotatable=1;deletable=1;editable=1;locked=0;connectable=1;" edge="1" parent="DIVmNxzl7p2DdEzpk0Qv-467" source="DIVmNxzl7p2DdEzpk0Qv-10">
          <mxGeometry relative="1" as="geometry">
            <mxPoint x="880.2608695652175" as="targetPoint" />
          </mxGeometry>
        </mxCell>
        <mxCell id="DIVmNxzl7p2DdEzpk0Qv-38" value="23" style="edgeStyle=orthogonalEdgeStyle;rounded=0;orthogonalLoop=1;jettySize=auto;html=1;exitX=0.92;exitY=0;exitDx=0;exitDy=0;exitPerimeter=0;fontFamily=Helvetica;fontSize=12;fontColor=default;endArrow=oval;endFill=1;movable=1;resizable=1;rotatable=1;deletable=1;editable=1;locked=0;connectable=1;" edge="1" parent="DIVmNxzl7p2DdEzpk0Qv-467" source="DIVmNxzl7p2DdEzpk0Qv-10">
          <mxGeometry relative="1" as="geometry">
            <mxPoint x="920.2608695652175" as="targetPoint" />
          </mxGeometry>
        </mxCell>
        <mxCell id="DIVmNxzl7p2DdEzpk0Qv-39" value="24" style="edgeStyle=orthogonalEdgeStyle;rounded=0;orthogonalLoop=1;jettySize=auto;html=1;exitX=0.96;exitY=0;exitDx=0;exitDy=0;exitPerimeter=0;fontFamily=Helvetica;fontSize=12;fontColor=default;endArrow=oval;endFill=1;movable=1;resizable=1;rotatable=1;deletable=1;editable=1;locked=0;connectable=1;anchorPointDirection=1;snapToPoint=0;" edge="1" parent="DIVmNxzl7p2DdEzpk0Qv-467" source="DIVmNxzl7p2DdEzpk0Qv-10">
          <mxGeometry relative="1" as="geometry">
            <mxPoint x="960.2608695652175" as="targetPoint" />
          </mxGeometry>
        </mxCell>
        <mxCell id="DIVmNxzl7p2DdEzpk0Qv-41" value="2" style="edgeStyle=orthogonalEdgeStyle;shape=connector;rounded=0;orthogonalLoop=1;jettySize=auto;html=1;exitX=0.08;exitY=1;exitDx=0;exitDy=1;exitPerimeter=0;labelBackgroundColor=default;strokeColor=default;align=center;verticalAlign=middle;fontFamily=Helvetica;fontSize=12;fontColor=default;endArrow=oval;endFill=1;movable=1;resizable=1;rotatable=1;deletable=1;editable=1;locked=0;connectable=1;" edge="1" parent="DIVmNxzl7p2DdEzpk0Qv-467" source="DIVmNxzl7p2DdEzpk0Qv-10">
          <mxGeometry relative="1" as="geometry">
            <mxPoint x="80.26086956521749" y="120" as="targetPoint" />
          </mxGeometry>
        </mxCell>
        <mxCell id="DIVmNxzl7p2DdEzpk0Qv-42" value="1" style="edgeStyle=orthogonalEdgeStyle;shape=connector;rounded=0;orthogonalLoop=1;jettySize=auto;html=1;exitX=0.04;exitY=0.99;exitDx=0;exitDy=0;exitPerimeter=0;labelBackgroundColor=default;strokeColor=default;align=center;verticalAlign=middle;fontFamily=Helvetica;fontSize=12;fontColor=default;endArrow=oval;endFill=1;movable=1;resizable=1;rotatable=1;deletable=1;editable=1;locked=0;connectable=1;" edge="1" parent="DIVmNxzl7p2DdEzpk0Qv-467" source="DIVmNxzl7p2DdEzpk0Qv-10">
          <mxGeometry relative="1" as="geometry">
            <mxPoint x="40.26086956521749" y="120" as="targetPoint" />
          </mxGeometry>
        </mxCell>
        <mxCell id="DIVmNxzl7p2DdEzpk0Qv-43" value="3" style="edgeStyle=orthogonalEdgeStyle;shape=connector;rounded=0;orthogonalLoop=1;jettySize=auto;html=1;exitX=0.12;exitY=1;exitDx=0;exitDy=1;exitPerimeter=0;labelBackgroundColor=default;strokeColor=default;align=center;verticalAlign=middle;fontFamily=Helvetica;fontSize=12;fontColor=default;endArrow=oval;endFill=1;movable=1;resizable=1;rotatable=1;deletable=1;editable=1;locked=0;connectable=1;" edge="1" parent="DIVmNxzl7p2DdEzpk0Qv-467" source="DIVmNxzl7p2DdEzpk0Qv-10">
          <mxGeometry relative="1" as="geometry">
            <mxPoint x="120.26086956521749" y="120" as="targetPoint" />
          </mxGeometry>
        </mxCell>
        <mxCell id="DIVmNxzl7p2DdEzpk0Qv-44" value="4" style="edgeStyle=orthogonalEdgeStyle;shape=connector;rounded=0;orthogonalLoop=1;jettySize=auto;html=1;exitX=0.16;exitY=1;exitDx=0;exitDy=0;exitPerimeter=0;labelBackgroundColor=default;strokeColor=default;align=center;verticalAlign=middle;fontFamily=Helvetica;fontSize=12;fontColor=default;endArrow=oval;endFill=1;movable=1;resizable=1;rotatable=1;deletable=1;editable=1;locked=0;connectable=1;" edge="1" parent="DIVmNxzl7p2DdEzpk0Qv-467" source="DIVmNxzl7p2DdEzpk0Qv-10">
          <mxGeometry relative="1" as="geometry">
            <mxPoint x="160.2608695652175" y="120" as="targetPoint" />
          </mxGeometry>
        </mxCell>
        <mxCell id="DIVmNxzl7p2DdEzpk0Qv-46" value="5" style="edgeStyle=orthogonalEdgeStyle;shape=connector;rounded=0;orthogonalLoop=1;jettySize=auto;html=1;exitX=0.2;exitY=1;exitDx=0;exitDy=1;exitPerimeter=0;labelBackgroundColor=default;strokeColor=default;align=center;verticalAlign=middle;fontFamily=Helvetica;fontSize=12;fontColor=default;endArrow=oval;endFill=1;movable=1;resizable=1;rotatable=1;deletable=1;editable=1;locked=0;connectable=1;" edge="1" parent="DIVmNxzl7p2DdEzpk0Qv-467" source="DIVmNxzl7p2DdEzpk0Qv-10">
          <mxGeometry relative="1" as="geometry">
            <mxPoint x="200.2608695652175" y="120" as="targetPoint" />
          </mxGeometry>
        </mxCell>
        <mxCell id="DIVmNxzl7p2DdEzpk0Qv-47" value="6" style="edgeStyle=orthogonalEdgeStyle;shape=connector;rounded=0;orthogonalLoop=1;jettySize=auto;html=1;exitX=0.24;exitY=1;exitDx=0;exitDy=0;exitPerimeter=0;labelBackgroundColor=default;strokeColor=default;align=center;verticalAlign=middle;fontFamily=Helvetica;fontSize=12;fontColor=default;endArrow=oval;endFill=1;movable=1;resizable=1;rotatable=1;deletable=1;editable=1;locked=0;connectable=1;" edge="1" parent="DIVmNxzl7p2DdEzpk0Qv-467" source="DIVmNxzl7p2DdEzpk0Qv-10">
          <mxGeometry relative="1" as="geometry">
            <mxPoint x="240.2608695652175" y="120" as="targetPoint" />
          </mxGeometry>
        </mxCell>
        <mxCell id="DIVmNxzl7p2DdEzpk0Qv-48" value="7" style="edgeStyle=orthogonalEdgeStyle;shape=connector;rounded=0;orthogonalLoop=1;jettySize=auto;html=1;exitX=0.28;exitY=1;exitDx=0;exitDy=0;exitPerimeter=0;labelBackgroundColor=default;strokeColor=default;align=center;verticalAlign=middle;fontFamily=Helvetica;fontSize=12;fontColor=default;endArrow=oval;endFill=1;movable=1;resizable=1;rotatable=1;deletable=1;editable=1;locked=0;connectable=1;" edge="1" parent="DIVmNxzl7p2DdEzpk0Qv-467" source="DIVmNxzl7p2DdEzpk0Qv-10">
          <mxGeometry relative="1" as="geometry">
            <mxPoint x="280.2608695652175" y="120" as="targetPoint" />
          </mxGeometry>
        </mxCell>
        <mxCell id="DIVmNxzl7p2DdEzpk0Qv-49" value="8" style="edgeStyle=orthogonalEdgeStyle;shape=connector;rounded=0;orthogonalLoop=1;jettySize=auto;html=1;exitX=0.32;exitY=1;exitDx=0;exitDy=1;exitPerimeter=0;labelBackgroundColor=default;strokeColor=default;align=center;verticalAlign=middle;fontFamily=Helvetica;fontSize=12;fontColor=default;endArrow=oval;endFill=1;movable=1;resizable=1;rotatable=1;deletable=1;editable=1;locked=0;connectable=1;" edge="1" parent="DIVmNxzl7p2DdEzpk0Qv-467" source="DIVmNxzl7p2DdEzpk0Qv-10">
          <mxGeometry relative="1" as="geometry">
            <mxPoint x="320.2608695652175" y="120" as="targetPoint" />
          </mxGeometry>
        </mxCell>
        <mxCell id="DIVmNxzl7p2DdEzpk0Qv-50" value="9" style="edgeStyle=orthogonalEdgeStyle;shape=connector;rounded=0;orthogonalLoop=1;jettySize=auto;html=1;exitX=0.36;exitY=0.99;exitDx=0;exitDy=0;exitPerimeter=0;labelBackgroundColor=default;strokeColor=default;align=center;verticalAlign=middle;fontFamily=Helvetica;fontSize=12;fontColor=default;endArrow=oval;endFill=1;movable=1;resizable=1;rotatable=1;deletable=1;editable=1;locked=0;connectable=1;" edge="1" parent="DIVmNxzl7p2DdEzpk0Qv-467" source="DIVmNxzl7p2DdEzpk0Qv-10">
          <mxGeometry relative="1" as="geometry">
            <mxPoint x="360.2608695652175" y="120" as="targetPoint" />
          </mxGeometry>
        </mxCell>
        <mxCell id="DIVmNxzl7p2DdEzpk0Qv-51" value="10" style="edgeStyle=orthogonalEdgeStyle;shape=connector;rounded=0;orthogonalLoop=1;jettySize=auto;html=1;exitX=0.4;exitY=1;exitDx=0;exitDy=0;exitPerimeter=0;labelBackgroundColor=default;strokeColor=default;align=center;verticalAlign=middle;fontFamily=Helvetica;fontSize=12;fontColor=default;endArrow=oval;endFill=1;movable=1;resizable=1;rotatable=1;deletable=1;editable=1;locked=0;connectable=1;" edge="1" parent="DIVmNxzl7p2DdEzpk0Qv-467" source="DIVmNxzl7p2DdEzpk0Qv-10">
          <mxGeometry relative="1" as="geometry">
            <mxPoint x="400.2608695652175" y="120" as="targetPoint" />
          </mxGeometry>
        </mxCell>
        <mxCell id="DIVmNxzl7p2DdEzpk0Qv-52" value="11" style="edgeStyle=orthogonalEdgeStyle;shape=connector;rounded=0;orthogonalLoop=1;jettySize=auto;html=1;exitX=0.44;exitY=1;exitDx=0;exitDy=0;exitPerimeter=0;labelBackgroundColor=default;strokeColor=default;align=center;verticalAlign=middle;fontFamily=Helvetica;fontSize=12;fontColor=default;endArrow=oval;endFill=1;movable=1;resizable=1;rotatable=1;deletable=1;editable=1;locked=0;connectable=1;" edge="1" parent="DIVmNxzl7p2DdEzpk0Qv-467" source="DIVmNxzl7p2DdEzpk0Qv-10">
          <mxGeometry relative="1" as="geometry">
            <mxPoint x="440.2608695652175" y="120" as="targetPoint" />
          </mxGeometry>
        </mxCell>
        <mxCell id="DIVmNxzl7p2DdEzpk0Qv-53" value="12" style="edgeStyle=orthogonalEdgeStyle;shape=connector;rounded=0;orthogonalLoop=1;jettySize=auto;html=1;exitX=0.48;exitY=1;exitDx=0;exitDy=0;exitPerimeter=0;labelBackgroundColor=default;strokeColor=default;align=center;verticalAlign=middle;fontFamily=Helvetica;fontSize=12;fontColor=default;endArrow=oval;endFill=1;movable=1;resizable=1;rotatable=1;deletable=1;editable=1;locked=0;connectable=1;" edge="1" parent="DIVmNxzl7p2DdEzpk0Qv-467" source="DIVmNxzl7p2DdEzpk0Qv-10">
          <mxGeometry relative="1" as="geometry">
            <mxPoint x="480.2608695652175" y="120" as="targetPoint" />
          </mxGeometry>
        </mxCell>
        <mxCell id="DIVmNxzl7p2DdEzpk0Qv-54" value="13" style="edgeStyle=orthogonalEdgeStyle;shape=connector;rounded=0;orthogonalLoop=1;jettySize=auto;html=1;exitX=0.52;exitY=1;exitDx=0;exitDy=0;exitPerimeter=0;labelBackgroundColor=default;strokeColor=default;align=center;verticalAlign=middle;fontFamily=Helvetica;fontSize=12;fontColor=default;endArrow=oval;endFill=1;movable=1;resizable=1;rotatable=1;deletable=1;editable=1;locked=0;connectable=1;" edge="1" parent="DIVmNxzl7p2DdEzpk0Qv-467" source="DIVmNxzl7p2DdEzpk0Qv-10">
          <mxGeometry relative="1" as="geometry">
            <mxPoint x="520.2608695652175" y="120" as="targetPoint" />
          </mxGeometry>
        </mxCell>
        <mxCell id="DIVmNxzl7p2DdEzpk0Qv-55" value="14" style="edgeStyle=orthogonalEdgeStyle;shape=connector;rounded=0;orthogonalLoop=1;jettySize=auto;html=1;exitX=0.56;exitY=1;exitDx=0;exitDy=1;exitPerimeter=0;labelBackgroundColor=default;strokeColor=default;align=center;verticalAlign=middle;fontFamily=Helvetica;fontSize=12;fontColor=default;endArrow=oval;endFill=1;movable=1;resizable=1;rotatable=1;deletable=1;editable=1;locked=0;connectable=1;" edge="1" parent="DIVmNxzl7p2DdEzpk0Qv-467" source="DIVmNxzl7p2DdEzpk0Qv-10">
          <mxGeometry relative="1" as="geometry">
            <mxPoint x="560.2608695652175" y="120" as="targetPoint" />
          </mxGeometry>
        </mxCell>
        <mxCell id="DIVmNxzl7p2DdEzpk0Qv-56" value="15" style="edgeStyle=orthogonalEdgeStyle;shape=connector;rounded=0;orthogonalLoop=1;jettySize=auto;html=1;exitX=0.6;exitY=1;exitDx=0;exitDy=0;exitPerimeter=0;labelBackgroundColor=default;strokeColor=default;align=center;verticalAlign=middle;fontFamily=Helvetica;fontSize=12;fontColor=default;endArrow=oval;endFill=1;movable=1;resizable=1;rotatable=1;deletable=1;editable=1;locked=0;connectable=1;" edge="1" parent="DIVmNxzl7p2DdEzpk0Qv-467" source="DIVmNxzl7p2DdEzpk0Qv-10">
          <mxGeometry relative="1" as="geometry">
            <mxPoint x="600.2608695652175" y="120" as="targetPoint" />
          </mxGeometry>
        </mxCell>
        <mxCell id="DIVmNxzl7p2DdEzpk0Qv-57" value="15" style="edgeStyle=orthogonalEdgeStyle;shape=connector;rounded=0;orthogonalLoop=1;jettySize=auto;html=1;exitX=0.64;exitY=0.99;exitDx=0;exitDy=0;exitPerimeter=0;labelBackgroundColor=default;strokeColor=default;align=center;verticalAlign=middle;fontFamily=Helvetica;fontSize=12;fontColor=default;endArrow=oval;endFill=1;movable=1;resizable=1;rotatable=1;deletable=1;editable=1;locked=0;connectable=1;" edge="1" parent="DIVmNxzl7p2DdEzpk0Qv-467" source="DIVmNxzl7p2DdEzpk0Qv-10">
          <mxGeometry relative="1" as="geometry">
            <mxPoint x="640.2608695652175" y="120" as="targetPoint" />
          </mxGeometry>
        </mxCell>
        <mxCell id="DIVmNxzl7p2DdEzpk0Qv-58" value="16" style="edgeStyle=orthogonalEdgeStyle;shape=connector;rounded=0;orthogonalLoop=1;jettySize=auto;html=1;exitX=0.68;exitY=1;exitDx=0;exitDy=1;exitPerimeter=0;labelBackgroundColor=default;strokeColor=default;align=center;verticalAlign=middle;fontFamily=Helvetica;fontSize=12;fontColor=default;endArrow=oval;endFill=1;movable=1;resizable=1;rotatable=1;deletable=1;editable=1;locked=0;connectable=1;" edge="1" parent="DIVmNxzl7p2DdEzpk0Qv-467" source="DIVmNxzl7p2DdEzpk0Qv-10">
          <mxGeometry relative="1" as="geometry">
            <mxPoint x="680.2608695652175" y="120" as="targetPoint" />
          </mxGeometry>
        </mxCell>
        <mxCell id="DIVmNxzl7p2DdEzpk0Qv-59" value="17" style="edgeStyle=orthogonalEdgeStyle;shape=connector;rounded=0;orthogonalLoop=1;jettySize=auto;html=1;exitX=0.72;exitY=1;exitDx=0;exitDy=0;exitPerimeter=0;labelBackgroundColor=default;strokeColor=default;align=center;verticalAlign=middle;fontFamily=Helvetica;fontSize=12;fontColor=default;endArrow=oval;endFill=1;movable=1;resizable=1;rotatable=1;deletable=1;editable=1;locked=0;connectable=1;" edge="1" parent="DIVmNxzl7p2DdEzpk0Qv-467" source="DIVmNxzl7p2DdEzpk0Qv-10">
          <mxGeometry relative="1" as="geometry">
            <mxPoint x="720.2608695652175" y="120" as="targetPoint" />
          </mxGeometry>
        </mxCell>
        <mxCell id="DIVmNxzl7p2DdEzpk0Qv-60" value="18" style="edgeStyle=orthogonalEdgeStyle;shape=connector;rounded=0;orthogonalLoop=1;jettySize=auto;html=1;exitX=0.76;exitY=1;exitDx=0;exitDy=1;exitPerimeter=0;labelBackgroundColor=default;strokeColor=default;align=center;verticalAlign=middle;fontFamily=Helvetica;fontSize=12;fontColor=default;endArrow=oval;endFill=1;movable=1;resizable=1;rotatable=1;deletable=1;editable=1;locked=0;connectable=1;" edge="1" parent="DIVmNxzl7p2DdEzpk0Qv-467" source="DIVmNxzl7p2DdEzpk0Qv-10">
          <mxGeometry relative="1" as="geometry">
            <mxPoint x="760.2608695652175" y="120" as="targetPoint" />
          </mxGeometry>
        </mxCell>
        <mxCell id="DIVmNxzl7p2DdEzpk0Qv-61" value="19" style="edgeStyle=orthogonalEdgeStyle;shape=connector;rounded=0;orthogonalLoop=1;jettySize=auto;html=1;exitX=0.8;exitY=1;exitDx=0;exitDy=0;exitPerimeter=0;labelBackgroundColor=default;strokeColor=default;align=center;verticalAlign=middle;fontFamily=Helvetica;fontSize=12;fontColor=default;endArrow=oval;endFill=1;movable=1;resizable=1;rotatable=1;deletable=1;editable=1;locked=0;connectable=1;" edge="1" parent="DIVmNxzl7p2DdEzpk0Qv-467" source="DIVmNxzl7p2DdEzpk0Qv-10">
          <mxGeometry relative="1" as="geometry">
            <mxPoint x="800.2608695652175" y="120" as="targetPoint" />
          </mxGeometry>
        </mxCell>
        <mxCell id="DIVmNxzl7p2DdEzpk0Qv-62" value="20" style="edgeStyle=orthogonalEdgeStyle;shape=connector;rounded=0;orthogonalLoop=1;jettySize=auto;html=1;exitX=0.84;exitY=1;exitDx=0;exitDy=0;exitPerimeter=0;labelBackgroundColor=default;strokeColor=default;align=center;verticalAlign=middle;fontFamily=Helvetica;fontSize=12;fontColor=default;endArrow=oval;endFill=1;movable=1;resizable=1;rotatable=1;deletable=1;editable=1;locked=0;connectable=1;" edge="1" parent="DIVmNxzl7p2DdEzpk0Qv-467" source="DIVmNxzl7p2DdEzpk0Qv-10">
          <mxGeometry relative="1" as="geometry">
            <mxPoint x="840.2608695652175" y="120" as="targetPoint" />
          </mxGeometry>
        </mxCell>
        <mxCell id="DIVmNxzl7p2DdEzpk0Qv-63" value="21" style="edgeStyle=orthogonalEdgeStyle;shape=connector;rounded=0;orthogonalLoop=1;jettySize=auto;html=1;exitX=0.88;exitY=1;exitDx=0;exitDy=0;exitPerimeter=0;labelBackgroundColor=default;strokeColor=default;align=center;verticalAlign=middle;fontFamily=Helvetica;fontSize=12;fontColor=default;endArrow=oval;endFill=1;movable=1;resizable=1;rotatable=1;deletable=1;editable=1;locked=0;connectable=1;" edge="1" parent="DIVmNxzl7p2DdEzpk0Qv-467" source="DIVmNxzl7p2DdEzpk0Qv-10">
          <mxGeometry relative="1" as="geometry">
            <mxPoint x="880.2608695652175" y="120" as="targetPoint" />
          </mxGeometry>
        </mxCell>
        <mxCell id="DIVmNxzl7p2DdEzpk0Qv-64" value="22" style="edgeStyle=orthogonalEdgeStyle;shape=connector;rounded=0;orthogonalLoop=1;jettySize=auto;html=1;exitX=0.92;exitY=1;exitDx=0;exitDy=0;exitPerimeter=0;labelBackgroundColor=default;strokeColor=default;align=center;verticalAlign=middle;fontFamily=Helvetica;fontSize=12;fontColor=default;endArrow=oval;endFill=1;movable=1;resizable=1;rotatable=1;deletable=1;editable=1;locked=0;connectable=1;" edge="1" parent="DIVmNxzl7p2DdEzpk0Qv-467" source="DIVmNxzl7p2DdEzpk0Qv-10">
          <mxGeometry relative="1" as="geometry">
            <mxPoint x="920.2608695652175" y="120" as="targetPoint" />
          </mxGeometry>
        </mxCell>
        <mxCell id="DIVmNxzl7p2DdEzpk0Qv-65" value="23" style="edgeStyle=orthogonalEdgeStyle;shape=connector;rounded=0;orthogonalLoop=1;jettySize=auto;html=1;exitX=0.96;exitY=1;exitDx=0;exitDy=0;exitPerimeter=0;labelBackgroundColor=default;strokeColor=default;align=center;verticalAlign=middle;fontFamily=Helvetica;fontSize=12;fontColor=default;endArrow=oval;endFill=1;movable=1;resizable=1;rotatable=1;deletable=1;editable=1;locked=0;connectable=1;" edge="1" parent="DIVmNxzl7p2DdEzpk0Qv-467" source="DIVmNxzl7p2DdEzpk0Qv-10">
          <mxGeometry relative="1" as="geometry">
            <mxPoint x="960.2608695652175" y="120" as="targetPoint" />
          </mxGeometry>
        </mxCell>
        <mxCell id="DIVmNxzl7p2DdEzpk0Qv-10" value="Patch Bay 1 A" style="rounded=0;whiteSpace=wrap;html=1;points=[[0.04,0,0,0,0],[0.04,0.99,0,0,0],[0.08,0,0,0,0],[0.08,1,0,0,1],[0.12,0,0,0,0],[0.12,1,0,0,1],[0.16,0,0,0,0],[0.16,1,0,0,0],[0.2,0,0,0,0],[0.2,1,0,0,1],[0.24,0,0,0,0],[0.24,1,0,0,0],[0.28,0,0,0,0],[0.28,1,0,0,0],[0.32,0,0,0,-1],[0.32,1,0,0,1],[0.36,0,0,0,-1],[0.36,0.99,0,0,0],[0.4,0,0,0,0],[0.4,1,0,0,0],[0.44,0.02,0,0,0],[0.44,1,0,0,0],[0.48,0.03,0,0,0],[0.48,1,0,0,0],[0.52,0.02,0,0,0],[0.52,1,0,0,0],[0.56,0,0,0,0],[0.56,1,0,0,1],[0.6,0,0,0,0],[0.6,1,0,0,0],[0.64,0,0,0,0],[0.64,0.99,0,0,0],[0.68,0.02,0,0,0],[0.68,1,0,0,1],[0.72,0,0,0,0],[0.72,1,0,0,0],[0.76,0,0,0,0],[0.76,1,0,0,1],[0.8,0.03,0,0,0],[0.8,1,0,0,0],[0.84,0,0,0,-1],[0.84,1,0,0,0],[0.88,0.02,0,0,0],[0.88,1,0,0,0],[0.92,0,0,0,0],[0.92,1,0,0,0],[0.96,0,0,0,0],[0.96,1,0,0,0]];movable=1;resizable=1;rotatable=1;deletable=1;editable=1;locked=0;connectable=0;container=0;" vertex="1" parent="DIVmNxzl7p2DdEzpk0Qv-467">
          <mxGeometry y="40" width="1000" height="40" as="geometry" />
        </mxCell>
        <mxCell id="DIVmNxzl7p2DdEzpk0Qv-14" value="1" style="endArrow=oval;html=1;rounded=0;fontFamily=Helvetica;fontSize=12;fontColor=default;exitX=0.04;exitY=0;exitDx=0;exitDy=0;exitPerimeter=0;endFill=1;movable=1;resizable=1;rotatable=1;deletable=1;editable=1;locked=0;connectable=1;" edge="1" parent="DIVmNxzl7p2DdEzpk0Qv-467" source="DIVmNxzl7p2DdEzpk0Qv-10">
          <mxGeometry width="50" height="50" relative="1" as="geometry">
            <mxPoint x="20" y="10" as="sourcePoint" />
            <mxPoint x="40" as="targetPoint" />
          </mxGeometry>
        </mxCell>
        <mxCell id="DIVmNxzl7p2DdEzpk0Qv-66" value="Back" style="text;html=1;strokeColor=none;fillColor=none;align=center;verticalAlign=middle;whiteSpace=wrap;rounded=0;fontSize=12;fontFamily=Helvetica;fontColor=default;movable=1;resizable=1;rotatable=1;deletable=1;editable=1;locked=0;connectable=0;container=0;" vertex="1" parent="DIVmNxzl7p2DdEzpk0Qv-467">
          <mxGeometry x="960" y="34" width="40" height="30" as="geometry" />
        </mxCell>
        <mxCell id="DIVmNxzl7p2DdEzpk0Qv-67" value="Back" style="text;html=1;strokeColor=none;fillColor=none;align=center;verticalAlign=middle;whiteSpace=wrap;rounded=0;fontSize=12;fontFamily=Helvetica;fontColor=default;movable=1;resizable=1;rotatable=1;deletable=1;editable=1;locked=0;connectable=0;container=0;" vertex="1" parent="DIVmNxzl7p2DdEzpk0Qv-467">
          <mxGeometry y="34" width="40" height="30" as="geometry" />
        </mxCell>
        <mxCell id="DIVmNxzl7p2DdEzpk0Qv-68" value="Front" style="text;html=1;strokeColor=none;fillColor=none;align=center;verticalAlign=middle;whiteSpace=wrap;rounded=0;fontSize=12;fontFamily=Helvetica;fontColor=default;movable=1;resizable=1;rotatable=1;deletable=1;editable=1;locked=0;connectable=0;container=0;" vertex="1" parent="DIVmNxzl7p2DdEzpk0Qv-467">
          <mxGeometry x="960" y="58" width="40" height="30" as="geometry" />
        </mxCell>
        <mxCell id="DIVmNxzl7p2DdEzpk0Qv-69" value="Front" style="text;html=1;strokeColor=none;fillColor=none;align=center;verticalAlign=middle;whiteSpace=wrap;rounded=0;fontSize=12;fontFamily=Helvetica;fontColor=default;movable=1;resizable=1;rotatable=1;deletable=1;editable=1;locked=0;connectable=0;container=0;" vertex="1" parent="DIVmNxzl7p2DdEzpk0Qv-467">
          <mxGeometry y="58" width="40" height="30" as="geometry" />
        </mxCell>
        <mxCell id="DIVmNxzl7p2DdEzpk0Qv-471" value="" style="group" vertex="1" connectable="0" parent="1">
          <mxGeometry x="1120" y="1360" width="1000" height="120" as="geometry" />
        </mxCell>
        <mxCell id="DIVmNxzl7p2DdEzpk0Qv-472" value="" style="rounded=0;whiteSpace=wrap;html=1;points=[[0.04,0,0,0,0],[0.04,0.99,0,0,0],[0.08,0,0,0,0],[0.08,1,0,0,1],[0.12,0,0,0,0],[0.12,1,0,0,1],[0.16,0,0,0,0],[0.16,1,0,0,0],[0.2,0,0,0,0],[0.2,1,0,0,1],[0.24,0,0,0,0],[0.24,1,0,0,0],[0.28,0,0,0,0],[0.28,1,0,0,0],[0.32,0,0,0,-1],[0.32,1,0,0,1],[0.36,0,0,0,-1],[0.36,0.99,0,0,0],[0.4,0,0,0,0],[0.4,1,0,0,0],[0.44,0.02,0,0,0],[0.44,1,0,0,0],[0.48,0.03,0,0,0],[0.48,1,0,0,0],[0.52,0.02,0,0,0],[0.52,1,0,0,0],[0.56,0,0,0,0],[0.56,1,0,0,1],[0.6,0,0,0,0],[0.6,1,0,0,0],[0.64,0,0,0,0],[0.64,0.99,0,0,0],[0.68,0.02,0,0,0],[0.68,1,0,0,1],[0.72,0,0,0,0],[0.72,1,0,0,0],[0.76,0,0,0,0],[0.76,1,0,0,1],[0.8,0.03,0,0,0],[0.8,1,0,0,0],[0.84,0,0,0,-1],[0.84,1,0,0,0],[0.88,0.02,0,0,0],[0.88,1,0,0,0],[0.92,0,0,0,0],[0.92,1,0,0,0],[0.96,0,0,0,0],[0.96,1,0,0,0]];movable=1;resizable=1;rotatable=1;deletable=1;editable=1;locked=0;connectable=1;container=0;fillColor=none;" vertex="1" parent="DIVmNxzl7p2DdEzpk0Qv-471">
          <mxGeometry width="1000" height="120" as="geometry" />
        </mxCell>
        <mxCell id="DIVmNxzl7p2DdEzpk0Qv-473" value="2" style="edgeStyle=orthogonalEdgeStyle;rounded=0;orthogonalLoop=1;jettySize=auto;html=1;exitX=0.08;exitY=0;exitDx=0;exitDy=0;exitPerimeter=0;fontFamily=Helvetica;fontSize=12;fontColor=default;endArrow=oval;endFill=1;movable=1;resizable=1;rotatable=1;deletable=1;editable=1;locked=0;connectable=1;" edge="1" parent="DIVmNxzl7p2DdEzpk0Qv-471" source="DIVmNxzl7p2DdEzpk0Qv-520">
          <mxGeometry relative="1" as="geometry">
            <mxPoint x="80.26086956521749" as="targetPoint" />
          </mxGeometry>
        </mxCell>
        <mxCell id="DIVmNxzl7p2DdEzpk0Qv-474" value="3" style="edgeStyle=orthogonalEdgeStyle;rounded=0;orthogonalLoop=1;jettySize=auto;html=1;exitX=0.12;exitY=0;exitDx=0;exitDy=0;exitPerimeter=0;fontFamily=Helvetica;fontSize=12;fontColor=default;endArrow=oval;endFill=1;movable=1;resizable=1;rotatable=1;deletable=1;editable=1;locked=0;connectable=1;" edge="1" parent="DIVmNxzl7p2DdEzpk0Qv-471" source="DIVmNxzl7p2DdEzpk0Qv-520">
          <mxGeometry relative="1" as="geometry">
            <mxPoint x="120.26086956521749" as="targetPoint" />
          </mxGeometry>
        </mxCell>
        <mxCell id="DIVmNxzl7p2DdEzpk0Qv-475" value="4" style="edgeStyle=orthogonalEdgeStyle;rounded=0;orthogonalLoop=1;jettySize=auto;html=1;exitX=0.16;exitY=0;exitDx=0;exitDy=0;exitPerimeter=0;fontFamily=Helvetica;fontSize=12;fontColor=default;endArrow=oval;endFill=1;movable=1;resizable=1;rotatable=1;deletable=1;editable=1;locked=0;connectable=1;" edge="1" parent="DIVmNxzl7p2DdEzpk0Qv-471" source="DIVmNxzl7p2DdEzpk0Qv-520">
          <mxGeometry relative="1" as="geometry">
            <mxPoint x="160.2608695652175" as="targetPoint" />
          </mxGeometry>
        </mxCell>
        <mxCell id="DIVmNxzl7p2DdEzpk0Qv-476" value="5" style="edgeStyle=orthogonalEdgeStyle;rounded=0;orthogonalLoop=1;jettySize=auto;html=1;exitX=0.2;exitY=0;exitDx=0;exitDy=0;exitPerimeter=0;fontFamily=Helvetica;fontSize=12;fontColor=default;endArrow=oval;endFill=1;movable=1;resizable=1;rotatable=1;deletable=1;editable=1;locked=0;connectable=1;" edge="1" parent="DIVmNxzl7p2DdEzpk0Qv-471" source="DIVmNxzl7p2DdEzpk0Qv-520">
          <mxGeometry relative="1" as="geometry">
            <mxPoint x="200.2608695652175" as="targetPoint" />
          </mxGeometry>
        </mxCell>
        <mxCell id="DIVmNxzl7p2DdEzpk0Qv-477" value="6" style="edgeStyle=orthogonalEdgeStyle;rounded=0;orthogonalLoop=1;jettySize=auto;html=1;exitX=0.24;exitY=0;exitDx=0;exitDy=0;exitPerimeter=0;fontFamily=Helvetica;fontSize=12;fontColor=default;endArrow=oval;endFill=1;movable=1;resizable=1;rotatable=1;deletable=1;editable=1;locked=0;connectable=1;" edge="1" parent="DIVmNxzl7p2DdEzpk0Qv-471" source="DIVmNxzl7p2DdEzpk0Qv-520">
          <mxGeometry relative="1" as="geometry">
            <mxPoint x="240.2608695652175" as="targetPoint" />
          </mxGeometry>
        </mxCell>
        <mxCell id="DIVmNxzl7p2DdEzpk0Qv-478" value="7" style="edgeStyle=orthogonalEdgeStyle;rounded=0;orthogonalLoop=1;jettySize=auto;html=1;exitX=0.28;exitY=0;exitDx=0;exitDy=0;exitPerimeter=0;fontFamily=Helvetica;fontSize=12;fontColor=default;endArrow=oval;endFill=1;movable=1;resizable=1;rotatable=1;deletable=1;editable=1;locked=0;connectable=1;" edge="1" parent="DIVmNxzl7p2DdEzpk0Qv-471" source="DIVmNxzl7p2DdEzpk0Qv-520">
          <mxGeometry relative="1" as="geometry">
            <mxPoint x="280.2608695652175" as="targetPoint" />
          </mxGeometry>
        </mxCell>
        <mxCell id="DIVmNxzl7p2DdEzpk0Qv-479" value="8" style="edgeStyle=orthogonalEdgeStyle;rounded=0;orthogonalLoop=1;jettySize=auto;html=1;exitX=0.32;exitY=0;exitDx=0;exitDy=-1;exitPerimeter=0;fontFamily=Helvetica;fontSize=12;fontColor=default;endArrow=oval;endFill=1;movable=1;resizable=1;rotatable=1;deletable=1;editable=1;locked=0;connectable=1;" edge="1" parent="DIVmNxzl7p2DdEzpk0Qv-471" source="DIVmNxzl7p2DdEzpk0Qv-520">
          <mxGeometry relative="1" as="geometry">
            <mxPoint x="320.2608695652175" as="targetPoint" />
          </mxGeometry>
        </mxCell>
        <mxCell id="DIVmNxzl7p2DdEzpk0Qv-480" value="9" style="edgeStyle=orthogonalEdgeStyle;rounded=0;orthogonalLoop=1;jettySize=auto;html=1;exitX=0.36;exitY=0;exitDx=0;exitDy=-1;exitPerimeter=0;fontFamily=Helvetica;fontSize=12;fontColor=default;endArrow=oval;endFill=1;movable=1;resizable=1;rotatable=1;deletable=1;editable=1;locked=0;connectable=1;" edge="1" parent="DIVmNxzl7p2DdEzpk0Qv-471" source="DIVmNxzl7p2DdEzpk0Qv-520">
          <mxGeometry relative="1" as="geometry">
            <mxPoint x="360.2608695652175" as="targetPoint" />
          </mxGeometry>
        </mxCell>
        <mxCell id="DIVmNxzl7p2DdEzpk0Qv-481" value="10" style="edgeStyle=orthogonalEdgeStyle;rounded=0;orthogonalLoop=1;jettySize=auto;html=1;exitX=0.4;exitY=0;exitDx=0;exitDy=0;exitPerimeter=0;fontFamily=Helvetica;fontSize=12;fontColor=default;endArrow=oval;endFill=1;movable=1;resizable=1;rotatable=1;deletable=1;editable=1;locked=0;connectable=1;" edge="1" parent="DIVmNxzl7p2DdEzpk0Qv-471" source="DIVmNxzl7p2DdEzpk0Qv-520">
          <mxGeometry relative="1" as="geometry">
            <mxPoint x="400.2608695652175" as="targetPoint" />
          </mxGeometry>
        </mxCell>
        <mxCell id="DIVmNxzl7p2DdEzpk0Qv-482" value="11" style="edgeStyle=orthogonalEdgeStyle;rounded=0;orthogonalLoop=1;jettySize=auto;html=1;exitX=0.44;exitY=0.02;exitDx=0;exitDy=0;exitPerimeter=0;fontFamily=Helvetica;fontSize=12;fontColor=default;endArrow=oval;endFill=1;movable=1;resizable=1;rotatable=1;deletable=1;editable=1;locked=0;connectable=1;" edge="1" parent="DIVmNxzl7p2DdEzpk0Qv-471" source="DIVmNxzl7p2DdEzpk0Qv-520">
          <mxGeometry relative="1" as="geometry">
            <mxPoint x="440.2608695652175" as="targetPoint" />
          </mxGeometry>
        </mxCell>
        <mxCell id="DIVmNxzl7p2DdEzpk0Qv-483" value="12" style="edgeStyle=orthogonalEdgeStyle;rounded=0;orthogonalLoop=1;jettySize=auto;html=1;exitX=0.48;exitY=0.03;exitDx=0;exitDy=0;exitPerimeter=0;fontFamily=Helvetica;fontSize=12;fontColor=default;endArrow=oval;endFill=1;movable=1;resizable=1;rotatable=1;deletable=1;editable=1;locked=0;connectable=1;" edge="1" parent="DIVmNxzl7p2DdEzpk0Qv-471" source="DIVmNxzl7p2DdEzpk0Qv-520">
          <mxGeometry relative="1" as="geometry">
            <mxPoint x="480.2608695652175" as="targetPoint" />
          </mxGeometry>
        </mxCell>
        <mxCell id="DIVmNxzl7p2DdEzpk0Qv-484" value="13" style="edgeStyle=orthogonalEdgeStyle;rounded=0;orthogonalLoop=1;jettySize=auto;html=1;exitX=0.52;exitY=0.02;exitDx=0;exitDy=0;exitPerimeter=0;fontFamily=Helvetica;fontSize=12;fontColor=default;endArrow=oval;endFill=1;movable=1;resizable=1;rotatable=1;deletable=1;editable=1;locked=0;connectable=1;" edge="1" parent="DIVmNxzl7p2DdEzpk0Qv-471" source="DIVmNxzl7p2DdEzpk0Qv-520">
          <mxGeometry relative="1" as="geometry">
            <mxPoint x="520.2608695652175" as="targetPoint" />
          </mxGeometry>
        </mxCell>
        <mxCell id="DIVmNxzl7p2DdEzpk0Qv-485" value="14" style="edgeStyle=orthogonalEdgeStyle;rounded=0;orthogonalLoop=1;jettySize=auto;html=1;exitX=0.56;exitY=0;exitDx=0;exitDy=0;exitPerimeter=0;fontFamily=Helvetica;fontSize=12;fontColor=default;endArrow=oval;endFill=1;movable=1;resizable=1;rotatable=1;deletable=1;editable=1;locked=0;connectable=1;" edge="1" parent="DIVmNxzl7p2DdEzpk0Qv-471" source="DIVmNxzl7p2DdEzpk0Qv-520">
          <mxGeometry relative="1" as="geometry">
            <mxPoint x="560.2608695652175" as="targetPoint" />
          </mxGeometry>
        </mxCell>
        <mxCell id="DIVmNxzl7p2DdEzpk0Qv-486" value="15" style="edgeStyle=orthogonalEdgeStyle;rounded=0;orthogonalLoop=1;jettySize=auto;html=1;exitX=0.6;exitY=0;exitDx=0;exitDy=0;exitPerimeter=0;fontFamily=Helvetica;fontSize=12;fontColor=default;endArrow=oval;endFill=1;movable=1;resizable=1;rotatable=1;deletable=1;editable=1;locked=0;connectable=1;" edge="1" parent="DIVmNxzl7p2DdEzpk0Qv-471" source="DIVmNxzl7p2DdEzpk0Qv-520">
          <mxGeometry relative="1" as="geometry">
            <mxPoint x="600.2608695652175" as="targetPoint" />
          </mxGeometry>
        </mxCell>
        <mxCell id="DIVmNxzl7p2DdEzpk0Qv-487" value="16" style="edgeStyle=orthogonalEdgeStyle;rounded=0;orthogonalLoop=1;jettySize=auto;html=1;exitX=0.64;exitY=0;exitDx=0;exitDy=0;exitPerimeter=0;fontFamily=Helvetica;fontSize=12;fontColor=default;endArrow=oval;endFill=1;movable=1;resizable=1;rotatable=1;deletable=1;editable=1;locked=0;connectable=1;" edge="1" parent="DIVmNxzl7p2DdEzpk0Qv-471" source="DIVmNxzl7p2DdEzpk0Qv-520">
          <mxGeometry relative="1" as="geometry">
            <mxPoint x="640.2608695652175" as="targetPoint" />
          </mxGeometry>
        </mxCell>
        <mxCell id="DIVmNxzl7p2DdEzpk0Qv-488" value="17" style="edgeStyle=orthogonalEdgeStyle;rounded=0;orthogonalLoop=1;jettySize=auto;html=1;exitX=0.68;exitY=0.02;exitDx=0;exitDy=0;exitPerimeter=0;fontFamily=Helvetica;fontSize=12;fontColor=default;endArrow=oval;endFill=1;movable=1;resizable=1;rotatable=1;deletable=1;editable=1;locked=0;connectable=1;" edge="1" parent="DIVmNxzl7p2DdEzpk0Qv-471" source="DIVmNxzl7p2DdEzpk0Qv-520">
          <mxGeometry relative="1" as="geometry">
            <mxPoint x="680.2608695652175" as="targetPoint" />
          </mxGeometry>
        </mxCell>
        <mxCell id="DIVmNxzl7p2DdEzpk0Qv-489" value="18" style="edgeStyle=orthogonalEdgeStyle;rounded=0;orthogonalLoop=1;jettySize=auto;html=1;exitX=0.72;exitY=0;exitDx=0;exitDy=0;exitPerimeter=0;fontFamily=Helvetica;fontSize=12;fontColor=default;endArrow=oval;endFill=1;movable=1;resizable=1;rotatable=1;deletable=1;editable=1;locked=0;connectable=1;" edge="1" parent="DIVmNxzl7p2DdEzpk0Qv-471" source="DIVmNxzl7p2DdEzpk0Qv-520">
          <mxGeometry relative="1" as="geometry">
            <mxPoint x="720.2608695652175" as="targetPoint" />
          </mxGeometry>
        </mxCell>
        <mxCell id="DIVmNxzl7p2DdEzpk0Qv-490" value="19" style="edgeStyle=orthogonalEdgeStyle;rounded=0;orthogonalLoop=1;jettySize=auto;html=1;exitX=0.76;exitY=0;exitDx=0;exitDy=0;exitPerimeter=0;fontFamily=Helvetica;fontSize=12;fontColor=default;endArrow=oval;endFill=1;movable=1;resizable=1;rotatable=1;deletable=1;editable=1;locked=0;connectable=1;" edge="1" parent="DIVmNxzl7p2DdEzpk0Qv-471" source="DIVmNxzl7p2DdEzpk0Qv-520">
          <mxGeometry relative="1" as="geometry">
            <mxPoint x="760.2608695652175" as="targetPoint" />
          </mxGeometry>
        </mxCell>
        <mxCell id="DIVmNxzl7p2DdEzpk0Qv-491" value="20" style="edgeStyle=orthogonalEdgeStyle;rounded=0;orthogonalLoop=1;jettySize=auto;html=1;exitX=0.8;exitY=0.03;exitDx=0;exitDy=0;exitPerimeter=0;fontFamily=Helvetica;fontSize=12;fontColor=default;endArrow=oval;endFill=1;movable=1;resizable=1;rotatable=1;deletable=1;editable=1;locked=0;connectable=1;" edge="1" parent="DIVmNxzl7p2DdEzpk0Qv-471" source="DIVmNxzl7p2DdEzpk0Qv-520">
          <mxGeometry relative="1" as="geometry">
            <mxPoint x="800.2608695652175" as="targetPoint" />
          </mxGeometry>
        </mxCell>
        <mxCell id="DIVmNxzl7p2DdEzpk0Qv-492" value="21" style="edgeStyle=orthogonalEdgeStyle;rounded=0;orthogonalLoop=1;jettySize=auto;html=1;exitX=0.84;exitY=0;exitDx=0;exitDy=-1;exitPerimeter=0;fontFamily=Helvetica;fontSize=12;fontColor=default;endArrow=oval;endFill=1;movable=1;resizable=1;rotatable=1;deletable=1;editable=1;locked=0;connectable=1;" edge="1" parent="DIVmNxzl7p2DdEzpk0Qv-471" source="DIVmNxzl7p2DdEzpk0Qv-520">
          <mxGeometry relative="1" as="geometry">
            <mxPoint x="840.2608695652175" as="targetPoint" />
          </mxGeometry>
        </mxCell>
        <mxCell id="DIVmNxzl7p2DdEzpk0Qv-493" value="22" style="edgeStyle=orthogonalEdgeStyle;rounded=0;orthogonalLoop=1;jettySize=auto;html=1;exitX=0.88;exitY=0.02;exitDx=0;exitDy=0;exitPerimeter=0;fontFamily=Helvetica;fontSize=12;fontColor=default;endArrow=oval;endFill=1;movable=1;resizable=1;rotatable=1;deletable=1;editable=1;locked=0;connectable=1;" edge="1" parent="DIVmNxzl7p2DdEzpk0Qv-471" source="DIVmNxzl7p2DdEzpk0Qv-520">
          <mxGeometry relative="1" as="geometry">
            <mxPoint x="880.2608695652175" as="targetPoint" />
          </mxGeometry>
        </mxCell>
        <mxCell id="DIVmNxzl7p2DdEzpk0Qv-494" value="23" style="edgeStyle=orthogonalEdgeStyle;rounded=0;orthogonalLoop=1;jettySize=auto;html=1;exitX=0.92;exitY=0;exitDx=0;exitDy=0;exitPerimeter=0;fontFamily=Helvetica;fontSize=12;fontColor=default;endArrow=oval;endFill=1;movable=1;resizable=1;rotatable=1;deletable=1;editable=1;locked=0;connectable=1;" edge="1" parent="DIVmNxzl7p2DdEzpk0Qv-471" source="DIVmNxzl7p2DdEzpk0Qv-520">
          <mxGeometry relative="1" as="geometry">
            <mxPoint x="920.2608695652175" as="targetPoint" />
          </mxGeometry>
        </mxCell>
        <mxCell id="DIVmNxzl7p2DdEzpk0Qv-495" value="24" style="edgeStyle=orthogonalEdgeStyle;rounded=0;orthogonalLoop=1;jettySize=auto;html=1;exitX=0.96;exitY=0;exitDx=0;exitDy=0;exitPerimeter=0;fontFamily=Helvetica;fontSize=12;fontColor=default;endArrow=oval;endFill=1;movable=1;resizable=1;rotatable=1;deletable=1;editable=1;locked=0;connectable=1;anchorPointDirection=1;snapToPoint=0;" edge="1" parent="DIVmNxzl7p2DdEzpk0Qv-471" source="DIVmNxzl7p2DdEzpk0Qv-520">
          <mxGeometry relative="1" as="geometry">
            <mxPoint x="960.2608695652175" as="targetPoint" />
          </mxGeometry>
        </mxCell>
        <mxCell id="DIVmNxzl7p2DdEzpk0Qv-496" value="2" style="edgeStyle=orthogonalEdgeStyle;shape=connector;rounded=0;orthogonalLoop=1;jettySize=auto;html=1;exitX=0.08;exitY=1;exitDx=0;exitDy=1;exitPerimeter=0;labelBackgroundColor=default;strokeColor=default;align=center;verticalAlign=middle;fontFamily=Helvetica;fontSize=12;fontColor=default;endArrow=oval;endFill=1;movable=1;resizable=1;rotatable=1;deletable=1;editable=1;locked=0;connectable=1;" edge="1" parent="DIVmNxzl7p2DdEzpk0Qv-471" source="DIVmNxzl7p2DdEzpk0Qv-520">
          <mxGeometry relative="1" as="geometry">
            <mxPoint x="80.26086956521749" y="120" as="targetPoint" />
          </mxGeometry>
        </mxCell>
        <mxCell id="DIVmNxzl7p2DdEzpk0Qv-497" value="1" style="edgeStyle=orthogonalEdgeStyle;shape=connector;rounded=0;orthogonalLoop=1;jettySize=auto;html=1;exitX=0.04;exitY=0.99;exitDx=0;exitDy=0;exitPerimeter=0;labelBackgroundColor=default;strokeColor=default;align=center;verticalAlign=middle;fontFamily=Helvetica;fontSize=12;fontColor=default;endArrow=oval;endFill=1;movable=1;resizable=1;rotatable=1;deletable=1;editable=1;locked=0;connectable=1;" edge="1" parent="DIVmNxzl7p2DdEzpk0Qv-471" source="DIVmNxzl7p2DdEzpk0Qv-520">
          <mxGeometry relative="1" as="geometry">
            <mxPoint x="40.26086956521749" y="120" as="targetPoint" />
          </mxGeometry>
        </mxCell>
        <mxCell id="DIVmNxzl7p2DdEzpk0Qv-498" value="3" style="edgeStyle=orthogonalEdgeStyle;shape=connector;rounded=0;orthogonalLoop=1;jettySize=auto;html=1;exitX=0.12;exitY=1;exitDx=0;exitDy=1;exitPerimeter=0;labelBackgroundColor=default;strokeColor=default;align=center;verticalAlign=middle;fontFamily=Helvetica;fontSize=12;fontColor=default;endArrow=oval;endFill=1;movable=1;resizable=1;rotatable=1;deletable=1;editable=1;locked=0;connectable=1;" edge="1" parent="DIVmNxzl7p2DdEzpk0Qv-471" source="DIVmNxzl7p2DdEzpk0Qv-520">
          <mxGeometry relative="1" as="geometry">
            <mxPoint x="120.26086956521749" y="120" as="targetPoint" />
          </mxGeometry>
        </mxCell>
        <mxCell id="DIVmNxzl7p2DdEzpk0Qv-499" value="4" style="edgeStyle=orthogonalEdgeStyle;shape=connector;rounded=0;orthogonalLoop=1;jettySize=auto;html=1;exitX=0.16;exitY=1;exitDx=0;exitDy=0;exitPerimeter=0;labelBackgroundColor=default;strokeColor=default;align=center;verticalAlign=middle;fontFamily=Helvetica;fontSize=12;fontColor=default;endArrow=oval;endFill=1;movable=1;resizable=1;rotatable=1;deletable=1;editable=1;locked=0;connectable=1;" edge="1" parent="DIVmNxzl7p2DdEzpk0Qv-471" source="DIVmNxzl7p2DdEzpk0Qv-520">
          <mxGeometry relative="1" as="geometry">
            <mxPoint x="160.2608695652175" y="120" as="targetPoint" />
          </mxGeometry>
        </mxCell>
        <mxCell id="DIVmNxzl7p2DdEzpk0Qv-500" value="5" style="edgeStyle=orthogonalEdgeStyle;shape=connector;rounded=0;orthogonalLoop=1;jettySize=auto;html=1;exitX=0.2;exitY=1;exitDx=0;exitDy=1;exitPerimeter=0;labelBackgroundColor=default;strokeColor=default;align=center;verticalAlign=middle;fontFamily=Helvetica;fontSize=12;fontColor=default;endArrow=oval;endFill=1;movable=1;resizable=1;rotatable=1;deletable=1;editable=1;locked=0;connectable=1;" edge="1" parent="DIVmNxzl7p2DdEzpk0Qv-471" source="DIVmNxzl7p2DdEzpk0Qv-520">
          <mxGeometry relative="1" as="geometry">
            <mxPoint x="200.2608695652175" y="120" as="targetPoint" />
          </mxGeometry>
        </mxCell>
        <mxCell id="DIVmNxzl7p2DdEzpk0Qv-501" value="6" style="edgeStyle=orthogonalEdgeStyle;shape=connector;rounded=0;orthogonalLoop=1;jettySize=auto;html=1;exitX=0.24;exitY=1;exitDx=0;exitDy=0;exitPerimeter=0;labelBackgroundColor=default;strokeColor=default;align=center;verticalAlign=middle;fontFamily=Helvetica;fontSize=12;fontColor=default;endArrow=oval;endFill=1;movable=1;resizable=1;rotatable=1;deletable=1;editable=1;locked=0;connectable=1;" edge="1" parent="DIVmNxzl7p2DdEzpk0Qv-471" source="DIVmNxzl7p2DdEzpk0Qv-520">
          <mxGeometry relative="1" as="geometry">
            <mxPoint x="240.2608695652175" y="120" as="targetPoint" />
          </mxGeometry>
        </mxCell>
        <mxCell id="DIVmNxzl7p2DdEzpk0Qv-502" value="7" style="edgeStyle=orthogonalEdgeStyle;shape=connector;rounded=0;orthogonalLoop=1;jettySize=auto;html=1;exitX=0.28;exitY=1;exitDx=0;exitDy=0;exitPerimeter=0;labelBackgroundColor=default;strokeColor=default;align=center;verticalAlign=middle;fontFamily=Helvetica;fontSize=12;fontColor=default;endArrow=oval;endFill=1;movable=1;resizable=1;rotatable=1;deletable=1;editable=1;locked=0;connectable=1;" edge="1" parent="DIVmNxzl7p2DdEzpk0Qv-471" source="DIVmNxzl7p2DdEzpk0Qv-520">
          <mxGeometry relative="1" as="geometry">
            <mxPoint x="280.2608695652175" y="120" as="targetPoint" />
          </mxGeometry>
        </mxCell>
        <mxCell id="DIVmNxzl7p2DdEzpk0Qv-503" value="8" style="edgeStyle=orthogonalEdgeStyle;shape=connector;rounded=0;orthogonalLoop=1;jettySize=auto;html=1;exitX=0.32;exitY=1;exitDx=0;exitDy=1;exitPerimeter=0;labelBackgroundColor=default;strokeColor=default;align=center;verticalAlign=middle;fontFamily=Helvetica;fontSize=12;fontColor=default;endArrow=oval;endFill=1;movable=1;resizable=1;rotatable=1;deletable=1;editable=1;locked=0;connectable=1;" edge="1" parent="DIVmNxzl7p2DdEzpk0Qv-471" source="DIVmNxzl7p2DdEzpk0Qv-520">
          <mxGeometry relative="1" as="geometry">
            <mxPoint x="320.2608695652175" y="120" as="targetPoint" />
          </mxGeometry>
        </mxCell>
        <mxCell id="DIVmNxzl7p2DdEzpk0Qv-504" value="9" style="edgeStyle=orthogonalEdgeStyle;shape=connector;rounded=0;orthogonalLoop=1;jettySize=auto;html=1;exitX=0.36;exitY=0.99;exitDx=0;exitDy=0;exitPerimeter=0;labelBackgroundColor=default;strokeColor=default;align=center;verticalAlign=middle;fontFamily=Helvetica;fontSize=12;fontColor=default;endArrow=oval;endFill=1;movable=1;resizable=1;rotatable=1;deletable=1;editable=1;locked=0;connectable=1;" edge="1" parent="DIVmNxzl7p2DdEzpk0Qv-471" source="DIVmNxzl7p2DdEzpk0Qv-520">
          <mxGeometry relative="1" as="geometry">
            <mxPoint x="360.2608695652175" y="120" as="targetPoint" />
          </mxGeometry>
        </mxCell>
        <mxCell id="DIVmNxzl7p2DdEzpk0Qv-505" value="10" style="edgeStyle=orthogonalEdgeStyle;shape=connector;rounded=0;orthogonalLoop=1;jettySize=auto;html=1;exitX=0.4;exitY=1;exitDx=0;exitDy=0;exitPerimeter=0;labelBackgroundColor=default;strokeColor=default;align=center;verticalAlign=middle;fontFamily=Helvetica;fontSize=12;fontColor=default;endArrow=oval;endFill=1;movable=1;resizable=1;rotatable=1;deletable=1;editable=1;locked=0;connectable=1;" edge="1" parent="DIVmNxzl7p2DdEzpk0Qv-471" source="DIVmNxzl7p2DdEzpk0Qv-520">
          <mxGeometry relative="1" as="geometry">
            <mxPoint x="400.2608695652175" y="120" as="targetPoint" />
          </mxGeometry>
        </mxCell>
        <mxCell id="DIVmNxzl7p2DdEzpk0Qv-506" value="11" style="edgeStyle=orthogonalEdgeStyle;shape=connector;rounded=0;orthogonalLoop=1;jettySize=auto;html=1;exitX=0.44;exitY=1;exitDx=0;exitDy=0;exitPerimeter=0;labelBackgroundColor=default;strokeColor=default;align=center;verticalAlign=middle;fontFamily=Helvetica;fontSize=12;fontColor=default;endArrow=oval;endFill=1;movable=1;resizable=1;rotatable=1;deletable=1;editable=1;locked=0;connectable=1;" edge="1" parent="DIVmNxzl7p2DdEzpk0Qv-471" source="DIVmNxzl7p2DdEzpk0Qv-520">
          <mxGeometry relative="1" as="geometry">
            <mxPoint x="440.2608695652175" y="120" as="targetPoint" />
          </mxGeometry>
        </mxCell>
        <mxCell id="DIVmNxzl7p2DdEzpk0Qv-507" value="12" style="edgeStyle=orthogonalEdgeStyle;shape=connector;rounded=0;orthogonalLoop=1;jettySize=auto;html=1;exitX=0.48;exitY=1;exitDx=0;exitDy=0;exitPerimeter=0;labelBackgroundColor=default;strokeColor=default;align=center;verticalAlign=middle;fontFamily=Helvetica;fontSize=12;fontColor=default;endArrow=oval;endFill=1;movable=1;resizable=1;rotatable=1;deletable=1;editable=1;locked=0;connectable=1;" edge="1" parent="DIVmNxzl7p2DdEzpk0Qv-471" source="DIVmNxzl7p2DdEzpk0Qv-520">
          <mxGeometry relative="1" as="geometry">
            <mxPoint x="480.2608695652175" y="120" as="targetPoint" />
          </mxGeometry>
        </mxCell>
        <mxCell id="DIVmNxzl7p2DdEzpk0Qv-508" value="13" style="edgeStyle=orthogonalEdgeStyle;shape=connector;rounded=0;orthogonalLoop=1;jettySize=auto;html=1;exitX=0.52;exitY=1;exitDx=0;exitDy=0;exitPerimeter=0;labelBackgroundColor=default;strokeColor=default;align=center;verticalAlign=middle;fontFamily=Helvetica;fontSize=12;fontColor=default;endArrow=oval;endFill=1;movable=1;resizable=1;rotatable=1;deletable=1;editable=1;locked=0;connectable=1;" edge="1" parent="DIVmNxzl7p2DdEzpk0Qv-471" source="DIVmNxzl7p2DdEzpk0Qv-520">
          <mxGeometry relative="1" as="geometry">
            <mxPoint x="520.2608695652175" y="120" as="targetPoint" />
          </mxGeometry>
        </mxCell>
        <mxCell id="DIVmNxzl7p2DdEzpk0Qv-509" value="14" style="edgeStyle=orthogonalEdgeStyle;shape=connector;rounded=0;orthogonalLoop=1;jettySize=auto;html=1;exitX=0.56;exitY=1;exitDx=0;exitDy=1;exitPerimeter=0;labelBackgroundColor=default;strokeColor=default;align=center;verticalAlign=middle;fontFamily=Helvetica;fontSize=12;fontColor=default;endArrow=oval;endFill=1;movable=1;resizable=1;rotatable=1;deletable=1;editable=1;locked=0;connectable=1;" edge="1" parent="DIVmNxzl7p2DdEzpk0Qv-471" source="DIVmNxzl7p2DdEzpk0Qv-520">
          <mxGeometry relative="1" as="geometry">
            <mxPoint x="560.2608695652175" y="120" as="targetPoint" />
          </mxGeometry>
        </mxCell>
        <mxCell id="DIVmNxzl7p2DdEzpk0Qv-510" value="15" style="edgeStyle=orthogonalEdgeStyle;shape=connector;rounded=0;orthogonalLoop=1;jettySize=auto;html=1;exitX=0.6;exitY=1;exitDx=0;exitDy=0;exitPerimeter=0;labelBackgroundColor=default;strokeColor=default;align=center;verticalAlign=middle;fontFamily=Helvetica;fontSize=12;fontColor=default;endArrow=oval;endFill=1;movable=1;resizable=1;rotatable=1;deletable=1;editable=1;locked=0;connectable=1;" edge="1" parent="DIVmNxzl7p2DdEzpk0Qv-471" source="DIVmNxzl7p2DdEzpk0Qv-520">
          <mxGeometry relative="1" as="geometry">
            <mxPoint x="600.2608695652175" y="120" as="targetPoint" />
          </mxGeometry>
        </mxCell>
        <mxCell id="DIVmNxzl7p2DdEzpk0Qv-511" value="15" style="edgeStyle=orthogonalEdgeStyle;shape=connector;rounded=0;orthogonalLoop=1;jettySize=auto;html=1;exitX=0.64;exitY=0.99;exitDx=0;exitDy=0;exitPerimeter=0;labelBackgroundColor=default;strokeColor=default;align=center;verticalAlign=middle;fontFamily=Helvetica;fontSize=12;fontColor=default;endArrow=oval;endFill=1;movable=1;resizable=1;rotatable=1;deletable=1;editable=1;locked=0;connectable=1;" edge="1" parent="DIVmNxzl7p2DdEzpk0Qv-471" source="DIVmNxzl7p2DdEzpk0Qv-520">
          <mxGeometry relative="1" as="geometry">
            <mxPoint x="640.2608695652175" y="120" as="targetPoint" />
          </mxGeometry>
        </mxCell>
        <mxCell id="DIVmNxzl7p2DdEzpk0Qv-512" value="16" style="edgeStyle=orthogonalEdgeStyle;shape=connector;rounded=0;orthogonalLoop=1;jettySize=auto;html=1;exitX=0.68;exitY=1;exitDx=0;exitDy=1;exitPerimeter=0;labelBackgroundColor=default;strokeColor=default;align=center;verticalAlign=middle;fontFamily=Helvetica;fontSize=12;fontColor=default;endArrow=oval;endFill=1;movable=1;resizable=1;rotatable=1;deletable=1;editable=1;locked=0;connectable=1;" edge="1" parent="DIVmNxzl7p2DdEzpk0Qv-471" source="DIVmNxzl7p2DdEzpk0Qv-520">
          <mxGeometry relative="1" as="geometry">
            <mxPoint x="680.2608695652175" y="120" as="targetPoint" />
          </mxGeometry>
        </mxCell>
        <mxCell id="DIVmNxzl7p2DdEzpk0Qv-513" value="17" style="edgeStyle=orthogonalEdgeStyle;shape=connector;rounded=0;orthogonalLoop=1;jettySize=auto;html=1;exitX=0.72;exitY=1;exitDx=0;exitDy=0;exitPerimeter=0;labelBackgroundColor=default;strokeColor=default;align=center;verticalAlign=middle;fontFamily=Helvetica;fontSize=12;fontColor=default;endArrow=oval;endFill=1;movable=1;resizable=1;rotatable=1;deletable=1;editable=1;locked=0;connectable=1;" edge="1" parent="DIVmNxzl7p2DdEzpk0Qv-471" source="DIVmNxzl7p2DdEzpk0Qv-520">
          <mxGeometry relative="1" as="geometry">
            <mxPoint x="720.2608695652175" y="120" as="targetPoint" />
          </mxGeometry>
        </mxCell>
        <mxCell id="DIVmNxzl7p2DdEzpk0Qv-514" value="18" style="edgeStyle=orthogonalEdgeStyle;shape=connector;rounded=0;orthogonalLoop=1;jettySize=auto;html=1;exitX=0.76;exitY=1;exitDx=0;exitDy=1;exitPerimeter=0;labelBackgroundColor=default;strokeColor=default;align=center;verticalAlign=middle;fontFamily=Helvetica;fontSize=12;fontColor=default;endArrow=oval;endFill=1;movable=1;resizable=1;rotatable=1;deletable=1;editable=1;locked=0;connectable=1;" edge="1" parent="DIVmNxzl7p2DdEzpk0Qv-471" source="DIVmNxzl7p2DdEzpk0Qv-520">
          <mxGeometry relative="1" as="geometry">
            <mxPoint x="760.2608695652175" y="120" as="targetPoint" />
          </mxGeometry>
        </mxCell>
        <mxCell id="DIVmNxzl7p2DdEzpk0Qv-515" value="19" style="edgeStyle=orthogonalEdgeStyle;shape=connector;rounded=0;orthogonalLoop=1;jettySize=auto;html=1;exitX=0.8;exitY=1;exitDx=0;exitDy=0;exitPerimeter=0;labelBackgroundColor=default;strokeColor=default;align=center;verticalAlign=middle;fontFamily=Helvetica;fontSize=12;fontColor=default;endArrow=oval;endFill=1;movable=1;resizable=1;rotatable=1;deletable=1;editable=1;locked=0;connectable=1;" edge="1" parent="DIVmNxzl7p2DdEzpk0Qv-471" source="DIVmNxzl7p2DdEzpk0Qv-520">
          <mxGeometry relative="1" as="geometry">
            <mxPoint x="800.2608695652175" y="120" as="targetPoint" />
          </mxGeometry>
        </mxCell>
        <mxCell id="DIVmNxzl7p2DdEzpk0Qv-516" value="20" style="edgeStyle=orthogonalEdgeStyle;shape=connector;rounded=0;orthogonalLoop=1;jettySize=auto;html=1;exitX=0.84;exitY=1;exitDx=0;exitDy=0;exitPerimeter=0;labelBackgroundColor=default;strokeColor=default;align=center;verticalAlign=middle;fontFamily=Helvetica;fontSize=12;fontColor=default;endArrow=oval;endFill=1;movable=1;resizable=1;rotatable=1;deletable=1;editable=1;locked=0;connectable=1;" edge="1" parent="DIVmNxzl7p2DdEzpk0Qv-471" source="DIVmNxzl7p2DdEzpk0Qv-520">
          <mxGeometry relative="1" as="geometry">
            <mxPoint x="840.2608695652175" y="120" as="targetPoint" />
          </mxGeometry>
        </mxCell>
        <mxCell id="DIVmNxzl7p2DdEzpk0Qv-517" value="21" style="edgeStyle=orthogonalEdgeStyle;shape=connector;rounded=0;orthogonalLoop=1;jettySize=auto;html=1;exitX=0.88;exitY=1;exitDx=0;exitDy=0;exitPerimeter=0;labelBackgroundColor=default;strokeColor=default;align=center;verticalAlign=middle;fontFamily=Helvetica;fontSize=12;fontColor=default;endArrow=oval;endFill=1;movable=1;resizable=1;rotatable=1;deletable=1;editable=1;locked=0;connectable=1;" edge="1" parent="DIVmNxzl7p2DdEzpk0Qv-471" source="DIVmNxzl7p2DdEzpk0Qv-520">
          <mxGeometry relative="1" as="geometry">
            <mxPoint x="880.2608695652175" y="120" as="targetPoint" />
          </mxGeometry>
        </mxCell>
        <mxCell id="DIVmNxzl7p2DdEzpk0Qv-518" value="22" style="edgeStyle=orthogonalEdgeStyle;shape=connector;rounded=0;orthogonalLoop=1;jettySize=auto;html=1;exitX=0.92;exitY=1;exitDx=0;exitDy=0;exitPerimeter=0;labelBackgroundColor=default;strokeColor=default;align=center;verticalAlign=middle;fontFamily=Helvetica;fontSize=12;fontColor=default;endArrow=oval;endFill=1;movable=1;resizable=1;rotatable=1;deletable=1;editable=1;locked=0;connectable=1;" edge="1" parent="DIVmNxzl7p2DdEzpk0Qv-471" source="DIVmNxzl7p2DdEzpk0Qv-520">
          <mxGeometry relative="1" as="geometry">
            <mxPoint x="920.2608695652175" y="120" as="targetPoint" />
          </mxGeometry>
        </mxCell>
        <mxCell id="DIVmNxzl7p2DdEzpk0Qv-519" value="23" style="edgeStyle=orthogonalEdgeStyle;shape=connector;rounded=0;orthogonalLoop=1;jettySize=auto;html=1;exitX=0.96;exitY=1;exitDx=0;exitDy=0;exitPerimeter=0;labelBackgroundColor=default;strokeColor=default;align=center;verticalAlign=middle;fontFamily=Helvetica;fontSize=12;fontColor=default;endArrow=oval;endFill=1;movable=1;resizable=1;rotatable=1;deletable=1;editable=1;locked=0;connectable=1;" edge="1" parent="DIVmNxzl7p2DdEzpk0Qv-471" source="DIVmNxzl7p2DdEzpk0Qv-520">
          <mxGeometry relative="1" as="geometry">
            <mxPoint x="960.2608695652175" y="120" as="targetPoint" />
          </mxGeometry>
        </mxCell>
        <mxCell id="DIVmNxzl7p2DdEzpk0Qv-520" value="Patch Bay 1 B" style="rounded=0;whiteSpace=wrap;html=1;points=[[0.04,0,0,0,0],[0.04,0.99,0,0,0],[0.08,0,0,0,0],[0.08,1,0,0,1],[0.12,0,0,0,0],[0.12,1,0,0,1],[0.16,0,0,0,0],[0.16,1,0,0,0],[0.2,0,0,0,0],[0.2,1,0,0,1],[0.24,0,0,0,0],[0.24,1,0,0,0],[0.28,0,0,0,0],[0.28,1,0,0,0],[0.32,0,0,0,-1],[0.32,1,0,0,1],[0.36,0,0,0,-1],[0.36,0.99,0,0,0],[0.4,0,0,0,0],[0.4,1,0,0,0],[0.44,0.02,0,0,0],[0.44,1,0,0,0],[0.48,0.03,0,0,0],[0.48,1,0,0,0],[0.52,0.02,0,0,0],[0.52,1,0,0,0],[0.56,0,0,0,0],[0.56,1,0,0,1],[0.6,0,0,0,0],[0.6,1,0,0,0],[0.64,0,0,0,0],[0.64,0.99,0,0,0],[0.68,0.02,0,0,0],[0.68,1,0,0,1],[0.72,0,0,0,0],[0.72,1,0,0,0],[0.76,0,0,0,0],[0.76,1,0,0,1],[0.8,0.03,0,0,0],[0.8,1,0,0,0],[0.84,0,0,0,-1],[0.84,1,0,0,0],[0.88,0.02,0,0,0],[0.88,1,0,0,0],[0.92,0,0,0,0],[0.92,1,0,0,0],[0.96,0,0,0,0],[0.96,1,0,0,0]];movable=1;resizable=1;rotatable=1;deletable=1;editable=1;locked=0;connectable=0;container=0;" vertex="1" parent="DIVmNxzl7p2DdEzpk0Qv-471">
          <mxGeometry y="40" width="1000" height="40" as="geometry" />
        </mxCell>
        <mxCell id="DIVmNxzl7p2DdEzpk0Qv-521" value="1" style="endArrow=oval;html=1;rounded=0;fontFamily=Helvetica;fontSize=12;fontColor=default;exitX=0.04;exitY=0;exitDx=0;exitDy=0;exitPerimeter=0;endFill=1;movable=1;resizable=1;rotatable=1;deletable=1;editable=1;locked=0;connectable=1;" edge="1" parent="DIVmNxzl7p2DdEzpk0Qv-471" source="DIVmNxzl7p2DdEzpk0Qv-520">
          <mxGeometry width="50" height="50" relative="1" as="geometry">
            <mxPoint x="20" y="10" as="sourcePoint" />
            <mxPoint x="40" as="targetPoint" />
          </mxGeometry>
        </mxCell>
        <mxCell id="DIVmNxzl7p2DdEzpk0Qv-522" value="Front" style="text;html=1;strokeColor=none;fillColor=none;align=center;verticalAlign=middle;whiteSpace=wrap;rounded=0;fontSize=12;fontFamily=Helvetica;fontColor=default;movable=1;resizable=1;rotatable=1;deletable=1;editable=1;locked=0;connectable=0;container=0;" vertex="1" parent="DIVmNxzl7p2DdEzpk0Qv-471">
          <mxGeometry x="960" y="34" width="40" height="30" as="geometry" />
        </mxCell>
        <mxCell id="DIVmNxzl7p2DdEzpk0Qv-523" value="Front" style="text;html=1;strokeColor=none;fillColor=none;align=center;verticalAlign=middle;whiteSpace=wrap;rounded=0;fontSize=12;fontFamily=Helvetica;fontColor=default;movable=1;resizable=1;rotatable=1;deletable=1;editable=1;locked=0;connectable=0;container=0;" vertex="1" parent="DIVmNxzl7p2DdEzpk0Qv-471">
          <mxGeometry y="34" width="40" height="30" as="geometry" />
        </mxCell>
        <mxCell id="DIVmNxzl7p2DdEzpk0Qv-524" value="Back" style="text;html=1;strokeColor=none;fillColor=none;align=center;verticalAlign=middle;whiteSpace=wrap;rounded=0;fontSize=12;fontFamily=Helvetica;fontColor=default;movable=1;resizable=1;rotatable=1;deletable=1;editable=1;locked=0;connectable=0;container=0;" vertex="1" parent="DIVmNxzl7p2DdEzpk0Qv-471">
          <mxGeometry x="960" y="58" width="40" height="30" as="geometry" />
        </mxCell>
        <mxCell id="DIVmNxzl7p2DdEzpk0Qv-525" value="Back" style="text;html=1;strokeColor=none;fillColor=none;align=center;verticalAlign=middle;whiteSpace=wrap;rounded=0;fontSize=12;fontFamily=Helvetica;fontColor=default;movable=1;resizable=1;rotatable=1;deletable=1;editable=1;locked=0;connectable=0;container=0;" vertex="1" parent="DIVmNxzl7p2DdEzpk0Qv-471">
          <mxGeometry y="58" width="40" height="30" as="geometry" />
        </mxCell>
      </root>
    </mxGraphModel>
  </diagram>
</mxfile>
